<svg width="15" height="10" viewBox="0 0 15 10" fill="none" xmlns="http://www.w3.org/2000/svg">
<path d="M12.0938 3.775C11.6687 1.61875 9.775 0 7.5 0C5.69375 0 4.125 1.025 3.34375 2.525C1.4625 2.725 0 4.31875 0 6.25C0 7.24456 0.395088 8.19839 1.09835 8.90165C1.80161 9.60491 2.75544 10 3.75 10H11.875C12.2854 10 12.6917 9.91917 13.0709 9.76212C13.45 9.60508 13.7945 9.37489 14.0847 9.08471C14.3749 8.79453 14.6051 8.45003 14.7621 8.07089C14.9192 7.69174 15 7.28538 15 6.875C15 5.225 13.7188 3.8875 12.0938 3.775ZM11.875 8.75H3.75C3.08696 8.75 2.45107 8.48661 1.98223 8.01777C1.51339 7.54893 1.25 6.91304 1.25 6.25C1.25 4.96875 2.20625 3.9 3.475 3.76875L4.14375 3.7L4.45625 3.10625C5.05 1.9625 6.2125 1.25 7.5 1.25C9.1375 1.25 10.55 2.4125 10.8687 4.01875L11.0563 4.95625L12.0125 5.025C12.9875 5.0875 13.75 5.90625 13.75 6.875C13.75 7.37228 13.5525 7.84919 13.2008 8.20083C12.8492 8.55246 12.3723 8.75 11.875 8.75ZM5 5.625H6.59375V7.5H8.40625V5.625H10L7.5 3.125L5 5.625Z" fill="black"/>
</svg>
