<svg width="19" height="16" viewBox="0 0 19 16" fill="none" xmlns="http://www.w3.org/2000/svg">
<path d="M8 0C9.06087 0 10.0783 0.421427 10.8284 1.17157C11.5786 1.92172 12 2.93913 12 4C12 5.06087 11.5786 6.07828 10.8284 6.82843C10.0783 7.57857 9.06087 8 8 8C6.93913 8 5.92172 7.57857 5.17157 6.82843C4.42143 6.07828 4 5.06087 4 4C4 2.93913 4.42143 1.92172 5.17157 1.17157C5.92172 0.421427 6.93913 0 8 0ZM8 2C7.46957 2 6.96086 2.21071 6.58579 2.58579C6.21071 2.96086 6 3.46957 6 4C6 4.53043 6.21071 5.03914 6.58579 5.41421C6.96086 5.78929 7.46957 6 8 6C8.53043 6 9.03914 5.78929 9.41421 5.41421C9.78929 5.03914 10 4.53043 10 4C10 3.46957 9.78929 2.96086 9.41421 2.58579C9.03914 2.21071 8.53043 2 8 2ZM8 9C9.1 9 10.66 9.23 12.11 9.69C11.5 10.07 11 10.6 10.61 11.23C9.79 11.03 8.89 10.9 8 10.9C5.03 10.9 1.9 12.36 1.9 13V14.1H10.04C10.13 14.8 10.38 15.44 10.76 16H0V13C0 10.34 5.33 9 8 9ZM15.5 6H17H19V8H17V13.5C17 14.163 16.7366 14.7989 16.2678 15.2678C15.7989 15.7366 15.163 16 14.5 16C13.837 16 13.2011 15.7366 12.7322 15.2678C12.2634 14.7989 12 14.163 12 13.5C12 12.837 12.2634 12.2011 12.7322 11.7322C13.2011 11.2634 13.837 11 14.5 11C14.86 11 15.19 11.07 15.5 11.21V6Z" fill="#6F747F"/>
</svg>
